# xmcd CD database file generated by Grip 2.96
# 
# Track frame offsets:
#       150
#       12901
#       24876
#       37643
#       51016
#       63416
#       77365
#       89382
#       104118
#       116232
#       128612
#       140094
#       154505
#       166567
# 
# Disc length: 2501 seconds
# 
# Revision: 0
# Processed by: cddbd v1.4PL0 Copyright (c) Steve Scherf et al.
# Submitted via: Grip 2.96
# 
DISCID=a109c30e
DTITLE=Sarah Vaughan - Body And Soul
DYEAR=1900
DGENRE=
TTITLE0=If You Could See me Now
TTITLE1=I Love You
TTITLE2=Can't Get Out Of This Mood
TTITLE3=Ev'ryday I Fall In Love
TTITLE4=Dedicated To You
TTITLE5=You're All I Need
TTITLE6=Shulie A Bop
TTITLE7=Lover Man
TTITLE8=They Can't Take That Away From Me
TTITLE9=Prelude To A Kiss
TTITLE10=Polka Dots And Moonbeams
TTITLE11=Body And Soul
TTITLE12=Make Yourself  Confortabel
TTITLE13=You're Not That Kind
EXTD=
EXTT0=
EXTT1=
EXTT2=
EXTT3=
EXTT4=
EXTT5=
EXTT6=
EXTT7=
EXTT8=
EXTT9=
EXTT10=
EXTT11=
EXTT12=
EXTT13=
PLAYORDER=
